<svg width="80" height="80" viewBox="0 0 80 80" fill="none" xmlns="http://www.w3.org/2000/svg">
<path d="M40 0C17.9439 0 0 17.9439 0 40C0 62.0561 17.9439 80 40 80C62.0561 80 80 62.0561 80 40C80 17.9439 62.0561 0 40 0ZM40 75.3125C20.5286 75.3125 4.6875 59.4714 4.6875 40C4.6875 20.5286 20.5286 4.6875 40 4.6875C59.4714 4.6875 75.3125 20.5286 75.3125 40C75.3125 59.4714 59.4714 75.3125 40 75.3125Z" fill="#098FF0"/>
<path d="M40 15.0625C35.9392 15.0625 32.6355 18.3663 32.6355 22.427C32.6355 26.4878 35.9392 29.7917 40 29.7917C44.0608 29.7917 47.3646 26.4878 47.3646 22.427C47.3646 18.3663 44.0608 15.0625 40 15.0625ZM40 25.1042C38.5239 25.1042 37.323 23.9031 37.323 22.427C37.323 20.9509 38.5239 19.75 40 19.75C41.4761 19.75 42.6771 20.9509 42.6771 22.427C42.6771 23.9031 41.4761 25.1042 40 25.1042Z" fill="#098FF0"/>
<path d="M40 35.1459C35.9392 35.1459 32.6355 38.4497 32.6355 42.5105V57.573C32.6355 61.7258 36.0178 64.9375 40 64.9375C44.0608 64.9375 47.3646 61.6337 47.3646 57.573V42.5105C47.3646 38.3577 43.9822 35.1459 40 35.1459ZM42.6771 57.573C42.6771 59.0491 41.4761 60.25 40 60.25C38.5389 60.25 37.323 59.0723 37.323 57.573V42.5105C37.323 41.0344 38.5239 39.8334 40 39.8334C41.4611 39.8334 42.6771 41.0111 42.6771 42.5105V57.573Z" fill="#098FF0"/>
</svg>
