<svg width="50" height="50" viewBox="0 0 50 50" fill="none" xmlns="http://www.w3.org/2000/svg">
<path d="M36.1266 17.9125L25 29.0406L13.8734 17.9141C13.2625 17.3031 12.2734 17.3031 11.6641 17.9141C11.0531 18.525 11.0531 19.5125 11.6641 20.1234L23.6281 32.0875C24.0031 32.4625 24.5156 32.5781 25.0016 32.4938C25.486 32.5797 26.0001 32.4625 26.3751 32.0875L38.3391 20.1234C38.9501 19.5125 38.9501 18.525 38.3391 17.9141C37.7266 17.3031 36.7375 17.3031 36.1266 17.9125ZM25 0C11.1922 0 0 11.1922 0 25C0 38.8078 11.1922 50 25 50C38.8078 50 50 38.8062 50 25C50 11.1938 38.8078 0 25 0ZM25 46.875C12.9187 46.875 3.125 37.0813 3.125 25C3.125 12.9187 12.9187 3.125 25 3.125C37.0813 3.125 46.875 12.9187 46.875 25C46.875 37.0813 37.0813 46.875 25 46.875Z" fill="#73B8EA"/>
</svg>
