<svg width="80" height="80" viewBox="0 0 80 80" fill="none" xmlns="http://www.w3.org/2000/svg">
<g clip-path="url(#clip0)">
<path d="M58.1764 80C57.6164 80 57.043 79.93 56.4764 79.78L4.93304 65.9767C1.39971 65.0033 -0.706962 61.3433 0.219705 57.81L6.72304 33.57C6.96304 32.68 7.87637 32.1633 8.76304 32.39C9.65304 32.6267 10.1797 33.5433 9.94304 34.43L3.44304 58.6633C2.97971 60.43 4.03971 62.27 5.80971 62.76L57.333 76.5567C59.103 77.0233 60.9297 75.97 61.3897 74.21L63.993 64.5633C64.233 63.6733 65.1464 63.1433 66.0364 63.3867C66.9264 63.6267 67.4497 64.5433 67.213 65.43L64.613 75.0633C63.8297 78.03 61.1297 80 58.1764 80Z" fill="#098FF0"/>
<path d="M73.3333 60H20C16.3233 60 13.3333 57.01 13.3333 53.3334V13.3334C13.3333 9.65669 16.3233 6.66669 20 6.66669H73.3333C77.01 6.66669 80 9.65669 80 13.3334V53.3334C80 57.01 77.01 60 73.3333 60ZM20 10C18.1633 10 16.6666 11.4967 16.6666 13.3334V53.3334C16.6666 55.17 18.1633 56.6667 20 56.6667H73.3333C75.17 56.6667 76.6666 55.17 76.6666 53.3334V13.3334C76.6666 11.4967 75.17 10 73.3333 10H20Z" fill="#098FF0"/>
<path d="M30 30C26.3233 30 23.3333 27.01 23.3333 23.3333C23.3333 19.6567 26.3233 16.6667 30 16.6667C33.6766 16.6667 36.6666 19.6567 36.6666 23.3333C36.6666 27.01 33.6766 30 30 30ZM30 20C28.1633 20 26.6666 21.4967 26.6666 23.3333C26.6666 25.17 28.1633 26.6667 30 26.6667C31.8366 26.6667 33.3333 25.17 33.3333 23.3333C33.3333 21.4967 31.8366 20 30 20Z" fill="#098FF0"/>
<path d="M15.2333 56.4333C14.8066 56.4333 14.38 56.27 14.0533 55.9467C13.4033 55.2967 13.4033 54.24 14.0533 53.59L29.7966 37.8467C31.6833 35.96 34.98 35.96 36.8666 37.8467L41.5533 42.5333L54.5266 26.9667C55.47 25.8367 56.8566 25.18 58.3333 25.1667H58.37C59.83 25.1667 61.2133 25.8 62.1666 26.91L79.6 47.25C80.2 47.9467 80.12 49 79.42 49.6C78.7233 50.2 77.6733 50.1234 77.07 49.42L59.6366 29.08C59.3133 28.7067 58.8666 28.5 58.37 28.5C58.0233 28.47 57.4133 28.71 57.09 29.1L42.9466 46.07C42.6466 46.43 42.21 46.6467 41.74 46.6667C41.2666 46.7 40.8166 46.5133 40.4866 46.18L34.51 40.2034C33.88 39.5767 32.7833 39.5767 32.1533 40.2034L16.41 55.9467C16.0866 56.27 15.66 56.4333 15.2333 56.4333Z" fill="#098FF0"/>
</g>
<defs>
<clipPath id="clip0">
<rect width="80" height="80" fill="white"/>
</clipPath>
</defs>
</svg>
