<svg width="80" height="80" viewBox="0 0 80 80" fill="none" xmlns="http://www.w3.org/2000/svg">
<path d="M68.2844 11.7156C60.7292 4.16078 50.6844 0 40 0C29.3156 0 19.2708 4.16078 11.7156 11.7156C4.16078 19.2708 0 29.3156 0 40C0 50.6844 4.16078 60.7292 11.7156 68.2844C19.2708 75.8392 29.3156 80 40 80C47.3145 80 54.4714 78.0067 60.697 74.2355C62.1733 73.3412 62.6452 71.4197 61.7509 69.9436C60.8569 68.4672 58.935 67.9955 57.4591 68.8897C52.2098 72.0694 46.1727 73.75 40 73.75C21.3902 73.75 6.25 58.6098 6.25 40C6.25 21.3902 21.3902 6.25 40 6.25C58.6098 6.25 73.75 21.3902 73.75 40C73.75 46.6545 71.7711 53.1319 68.027 58.732C67.0678 60.1667 67.4533 62.1075 68.8881 63.0667C70.323 64.0259 72.2636 63.6403 73.2228 62.2056C77.6564 55.5741 80 47.8955 80 40C80 29.3156 75.8392 19.2708 68.2844 11.7156Z" fill="#098FF0"/>
<path d="M40 11.875C38.2741 11.875 36.875 13.2741 36.875 15V38.7056L25.4159 50.1647C24.1955 51.385 24.1955 53.3636 25.4159 54.5841C26.0261 55.1942 26.8258 55.4994 27.6256 55.4994C28.4255 55.4994 29.2251 55.1942 29.8353 54.5841L42.2097 42.2097C42.7958 41.6237 43.125 40.8288 43.125 40V15C43.125 13.2741 41.7259 11.875 40 11.875Z" fill="#098FF0"/>
</svg>
